# xmcd CD database file
#
# Track frame offsets:
#	150
#	47200
#	74475
#	96290
#	123257
#	144977
#	164907
#	181070
#	203890
#	225232
#
# Disc length: 3220 seconds
#
# Revision: 0
# Processed by: cddbd v1.5.2PL0 Copyright (c) Steve Scherf et al.
# Submitted via: CdAid (MTCDDB.DLL V2003.12.21)
#
DISCID=8b0c920a
DTITLE=Adauto Santos - Tocador de Vida e Viola
DYEAR=1995
DGENRE=Country
TTITLE0=Viola Afinada
TTITLE1=De Papo Pro Ar
TTITLE2=Chuá Chuá
TTITLE3=Moda das Línguas
TTITLE4=Histórias de Assombração
TTITLE5=Triste Berrante
TTITLE6=Foi
TTITLE7=Caboclo João
TTITLE8=Bahia, Bahia
TTITLE9=Homenagem na Montanha
EXTD=ID3G:   2 YEAR: 1995
EXTT0=
EXTT1=
EXTT2=
EXTT3=
EXTT4=
EXTT5=
EXTT6=
EXTT7=
EXTT8=
EXTT9=
PLAYORDER=
